<svg xmlns="http://www.w3.org/2000/svg" version="1.1" xmlns:xlink="http://www.w3.org/1999/xlink" xmlns:svgjs="http://svgjs.dev/svgjs" viewBox="0 0 640 800"><g shape-rendering="crispEdges"><g><use xlink:href="#SvgjsSymbol1007" x="281.25" y="318.75" fill="#badae1"></use><use xlink:href="#SvgjsSymbol1008" x="281.25" y="318.75" fill="#5c7980"></use></g><g><use xlink:href="#SvgjsSymbol1007" x="243.75" y="375" fill="#badae1"></use><use xlink:href="#SvgjsSymbol1008" x="243.75" y="375" fill="#5c7980"></use></g><g><use xlink:href="#SvgjsSymbol1007" x="318.75" y="375" fill="#badae1"></use><use xlink:href="#SvgjsSymbol1008" x="318.75" y="375" fill="#5c7980"></use></g><g><use xlink:href="#SvgjsSymbol1007" x="206.25" y="431.25" fill="#badae1"></use><use xlink:href="#SvgjsSymbol1008" x="206.25" y="431.25" fill="#5c7980"></use></g><g><use xlink:href="#SvgjsSymbol1007" x="281.25" y="431.25" fill="#badae1"></use><use xlink:href="#SvgjsSymbol1008" x="281.25" y="431.25" fill="#5c7980"></use></g><g><use xlink:href="#SvgjsSymbol1007" x="356.25" y="431.25" fill="#badae1"></use><use xlink:href="#SvgjsSymbol1008" x="356.25" y="431.25" fill="#5c7980"></use></g><g><use xlink:href="#SvgjsSymbol1007" x="318.75" y="487.5" fill="#badae1"></use><use xlink:href="#SvgjsSymbol1008" x="318.75" y="487.5" fill="#5c7980"></use></g><g><use xlink:href="#SvgjsSymbol1007" x="243.75" y="487.5" fill="#badae1"></use><use xlink:href="#SvgjsSymbol1008" x="243.75" y="487.5" fill="#5c7980"></use></g><g><use xlink:href="#SvgjsSymbol1007" x="168.75" y="487.5" fill="#badae1"></use><use xlink:href="#SvgjsSymbol1008" x="168.75" y="487.5" fill="#5c7980"></use></g><g><use xlink:href="#SvgjsSymbol1007" x="393.75" y="487.5" fill="#badae1"></use><use xlink:href="#SvgjsSymbol1008" x="393.75" y="487.5" fill="#5c7980"></use></g><g><use xlink:href="#SvgjsSymbol1007" x="56.25" y="600" fill="#badae1"></use><use xlink:href="#SvgjsSymbol1008" x="56.25" y="600" fill="#5c7980"></use></g><g><use xlink:href="#SvgjsSymbol1007" x="56.25" y="150" fill="#badae1"></use><use xlink:href="#SvgjsSymbol1008" x="56.25" y="150" fill="#5c7980"></use></g><g><use xlink:href="#SvgjsSymbol1007" x="18.75" y="206.25" fill="#badae1"></use><use xlink:href="#SvgjsSymbol1008" x="18.75" y="206.25" fill="#5c7980"></use></g><g><use xlink:href="#SvgjsSymbol1007" x="468.75" y="243.75" fill="#badae1"></use><use xlink:href="#SvgjsSymbol1008" x="468.75" y="243.75" fill="#5c7980"></use></g><g><use xlink:href="#SvgjsSymbol1007" x="543.75" y="206.25" fill="#badae1"></use><use xlink:href="#SvgjsSymbol1008" x="543.75" y="206.25" fill="#5c7980"></use></g><g><use xlink:href="#SvgjsSymbol1007" x="487.5" y="112.5" fill="#badae1"></use><use xlink:href="#SvgjsSymbol1008" x="487.5" y="112.5" fill="#5c7980"></use></g></g><symbol id="SvgjsSymbol1000"><polygon points="0,12.5 25,0 50,12.5 25,25"></polygon></symbol><symbol id="SvgjsSymbol1001"><polygon points="0,12.5 25,25 25,50 0,37.5"></polygon></symbol><symbol id="SvgjsSymbol1002"><polygon points="25,25 50,12.5 50,37.5 25,50"></polygon></symbol><g></g><symbol id="SvgjsSymbol1003"><polygon points="0,25 50,0 100,25 50,50"></polygon></symbol><symbol id="SvgjsSymbol1004"><polygon points="0,25 50,50 50,100 0,75"></polygon></symbol><symbol id="SvgjsSymbol1005"><polygon points="50,50 100,25 100,75 50,100"></polygon></symbol><symbol id="SvgjsSymbol1006"><polygon points="0,18.75 37.5,0 75,18.75 37.5,37.5"></polygon></symbol><symbol id="SvgjsSymbol1007"><polygon points="0,18.75 37.5,37.5 37.5,75 0,56.25"></polygon></symbol><symbol id="SvgjsSymbol1008"><polygon points="37.5,37.5 75,18.75 75,56.25 37.5,75"></polygon></symbol></svg>